<?xml version="1.0" encoding="UTF-8" standalone="no"?>
<!-- Created with Inkscape (http://www.inkscape.org/) -->
<svg width="32" height="32" viewBox="0 0 32 32" version="1.1" id="svg5" xml:space="preserve" inkscape:version="1.2.2 (b0a8486541, 2022-12-01)" sodipodi:docname="terrarium-alttwo.svg" inkscape:export-filename="terrarium.png" inkscape:export-xdpi="96" inkscape:export-ydpi="96" xmlns:inkscape="http://www.inkscape.org/namespaces/inkscape" xmlns:sodipodi="http://sodipodi.sourceforge.net/DTD/sodipodi-0.dtd" xmlns="http://www.w3.org/2000/svg" xmlns:svg="http://www.w3.org/2000/svg"><sodipodi:namedview id="namedview7" pagecolor="#ffffff" bordercolor="#000000" borderopacity="0.25" inkscape:showpageshadow="2" inkscape:pageopacity="0.0" inkscape:pagecheckerboard="0" inkscape:deskcolor="#d1d1d1" inkscape:document-units="px" showgrid="true" inkscape:zoom="45.254834" inkscape:cx="20.583436" inkscape:cy="13.147767" inkscape:window-width="1882" inkscape:window-height="1044" inkscape:window-x="0" inkscape:window-y="0" inkscape:window-maximized="1" inkscape:current-layer="layer1"><inkscape:grid type="xygrid" id="grid182"/></sodipodi:namedview><defs id="defs2"><inkscape:path-effect effect="fillet_chamfer" id="path-effect2158" is_visible="true" lpeversion="1" nodesatellites_param="F,0,0,1,0,0,0,1 @ F,0,0,1,0,0,0,1 @ F,0,0,1,0,1.4502191,0,1 @ F,0,0,1,0,1.0083587,0,1" unit="px" method="auto" mode="F" radius="0" chamfer_steps="1" flexible="false" use_knot_distance="true" apply_no_radius="true" apply_with_radius="true" only_selected="false" hide_knots="false"/></defs><g inkscape:label="Layer 1" inkscape:groupmode="layer" id="layer1"><circle style="opacity:1;fill:#529ac6;fill-opacity:1;stroke-width:3.59964;stroke-linecap:round;stroke-linejoin:round" id="path1336" cx="16" cy="16" r="10"/><rect style="fill:#00c700;stroke-width:10.4746;stroke-linecap:round;stroke-linejoin:round;fill-opacity:1" id="rect299-5" width="9" height="1" x="9" y="23"/><rect style="fill:#72482c;stroke-width:14.8131;stroke-linecap:round;stroke-linejoin:round;fill-opacity:1" id="rect299-2" width="9" height="2" x="9" y="24"/><path id="rect299-2-9" style="fill:#72482c;stroke-width:6.98302;stroke-linecap:round;stroke-linejoin:round;fill-opacity:1" d="M 15 15 L 15 17 L 14 17 L 14 19 L 15 19 L 15 22 L 14 22 L 14 23 L 18 23 L 18 22 L 17 22 L 17 15 L 15 15 z "/><path id="rect299-2-2" style="fill:#008015;fill-opacity:1;stroke-width:13.9661;stroke-linecap:round;stroke-linejoin:round" d="M 14 11 L 14 12 L 13 12 L 13 14 L 14 14 L 14 15 L 18 15 L 18 14 L 19 14 L 19 12 L 18 12 L 18 11 L 14 11 z "/><rect style="fill:#008015;fill-opacity:1;stroke-width:3.49151;stroke-linecap:round;stroke-linejoin:round" id="rect299-2-7" width="1" height="1" x="13" y="17"/><rect style="fill:#008015;fill-opacity:1;stroke-width:3.49151;stroke-linecap:round;stroke-linejoin:round" id="rect1148" width="1" height="1" x="17" y="19"/><path id="rect1164" style="fill:#008015;fill-opacity:1;stroke-width:7.80725;stroke-linecap:round;stroke-linejoin:round" d="M 20.904297 18.013672 L 20.904297 20 L 20 20 L 20 19 L 19 19 L 19 20 L 19 21 L 20.904297 21 L 20.904297 23.097656 L 21.974609 23.097656 L 21.974609 21 L 24 21 L 24 20 L 24 19 L 23 19 L 23 20 L 21.974609 20 L 21.974609 18.013672 L 20.904297 18.013672 z "/><path id="rect1226" style="fill:#cebf82;stroke-width:14.8132;stroke-linecap:round;stroke-linejoin:round;fill-opacity:1" d="M 23 22 L 23 23 L 18 23 L 18 26 L 24 26 L 24 23 L 24 22 L 23 22 z "/><path id="circle3923" style="opacity:0.146727;fill:#000000;fill-opacity:1;stroke:none;stroke-width:0.96624;stroke-linecap:round;stroke-linejoin:round;stroke-dasharray:none;stroke-opacity:1" d="M 22.268247,8 A 10.147603,10.143348 0 0 1 24.550336,14.407548 10.147603,10.143348 0 0 1 14.402685,24.550943 10.147603,10.143348 0 0 1 8,22.256603 10.147603,10.143348 0 0 0 15.852349,26 10.147603,10.143348 0 0 0 26,15.856604 10.147603,10.143348 0 0 0 22.268247,8 Z"/><circle style="opacity:1;fill:none;fill-opacity:1;stroke:#33333f;stroke-width:1.0001;stroke-linecap:round;stroke-linejoin:round;stroke-dasharray:none;stroke-opacity:1" id="circle1903" cx="16" cy="16" r="10.49995"/><path id="path2317" style="opacity:1;fill:#ffffff;fill-opacity:1;stroke:none;stroke-width:1.70673;stroke-linecap:round;stroke-linejoin:round;stroke-dasharray:none;stroke-opacity:1" d="m 11.299196,9.0019532 a 1.1889048,2.1993694 29.637178 0 0 -1.81865,1.3867188 1.1889048,2.1993694 29.637178 0 0 -0.080091,2.515625 1.1889048,2.1993694 29.637178 0 0 2.119479,-1.292969 1.1889048,2.1993694 29.637178 0 0 0.308644,-0.667969 0.71389073,1.2209342 45.009355 0 0 0.851699,-0.638671 0.71389073,1.2209342 45.009355 0 0 0.05274,-1.257813 0.71389073,1.2209342 45.009355 0 0 -0.951325,0.2109375 1.1889048,2.1993694 29.637178 0 0 -0.181669,-0.1621095 1.1889048,2.1993694 29.637178 0 0 -0.30083,-0.09375 z"/><path style="opacity:1;fill:#333333;fill-opacity:1;stroke:none;stroke-width:0.992949;stroke-linecap:round;stroke-linejoin:round;stroke-dasharray:none;stroke-opacity:1" d="m 6,20 -1,7 h 22 l -1,-7 -0.305082,0.616901 -3.355932,3.87324 -4.194915,1.766197 -4.225989,0.03099 -4.1949151,-1.983099 -3.481837,-3.713182 z" id="path2729" sodipodi:nodetypes="ccccccccccc"/></g></svg>