<svg xmlns="http://www.w3.org/2000/svg" xml:space="preserve" width="32" height="32"><circle cx="16" cy="16" r="10" style="opacity:1;fill:#529ac6;fill-opacity:1;stroke-width:3.59964;stroke-linecap:round;stroke-linejoin:round"/><path d="M9 23h9v1H9z" style="fill:#00c700;stroke-width:10.4746;stroke-linecap:round;stroke-linejoin:round;fill-opacity:1"/><path d="M15 15v2h-1v2h1v3h-1v1h4v-1h-1v-7h-2zm-6 9v2h9v-2H9z" style="fill:#72482c;stroke-width:14.8131;stroke-linecap:round;stroke-linejoin:round;fill-opacity:1"/><path d="M14 11v1h-1v2h1v1h4v-1h1v-2h-1v-1h-4zm-1 6v1h1v-1h-1zm7.904 1.014V20H20v-1h-1v2h1.904v2.098h1.07V21H24v-2h-1v1h-1.025v-1.986h-1.07zM17 19v1h1v-1h-1z" style="fill:#008015;fill-opacity:1;stroke-width:13.9661;stroke-linecap:round;stroke-linejoin:round"/><path d="M23 22v1h-5v3h6v-4h-1z" style="fill:#cebf82;stroke-width:14.8132;stroke-linecap:round;stroke-linejoin:round;fill-opacity:1"/><path d="M22.268 8a10.148 10.143 0 0 1 2.282 6.408A10.148 10.143 0 0 1 14.403 24.55 10.148 10.143 0 0 1 8 22.257 10.148 10.143 0 0 0 15.852 26 10.148 10.143 0 0 0 26 15.857 10.148 10.143 0 0 0 22.268 8Z" style="opacity:.146727;fill:#000;fill-opacity:1;stroke:none;stroke-width:.96624;stroke-linecap:round;stroke-linejoin:round;stroke-dasharray:none;stroke-opacity:1"/><path d="M16 5C9.93 5 5 9.93 5 16c0 1.58.337 3.08.938 4.438L5 27h22l-.938-6.563C26.663 19.08 27 17.58 27 16c0-6.07-4.93-11-11-11zm0 1c5.529 0 10 4.471 10 10s-4.471 10-10 10S6 21.529 6 16 10.471 6 16 6z" style="color:#000;fill:#33333f;stroke-linecap:round;stroke-linejoin:round;-inkscape-stroke:none"/><path d="M11.3 9.002a1.189 2.2 29.637 0 0-1.82 1.387 1.189 2.2 29.637 0 0-.08 2.515 1.189 2.2 29.637 0 0 2.12-1.293 1.189 2.2 29.637 0 0 .309-.668.714 1.22 45.01 0 0 .851-.638.714 1.22 45.01 0 0 .053-1.258.714 1.22 45.01 0 0-.951.21 1.189 2.2 29.637 0 0-.182-.161 1.189 2.2 29.637 0 0-.3-.094z" style="opacity:1;fill:#fff;fill-opacity:1;stroke:none;stroke-width:1.70673;stroke-linecap:round;stroke-linejoin:round;stroke-dasharray:none;stroke-opacity:1"/></svg>